# xmcd
#
# Track frame offsets: 
#        150
#        12595
#        28237
#        46463
#        58865
#        70572
#        83823
#        96938
#        112707
#        129848
#        154304
#        171130
#        190005
#        205928
#        220216
#        235560
#        251470
#        265426
#        282180
#        299381
#        314987
#
# Disc length: 4628 seconds
#
# Revision: 2
# Processed by: cddbd v1.5.2PL0 Copyright (c) Steve Scherf et al.
# Submitted via: ExactAudioCopyFreeDBPlugin 1.0
#
DISCID=33121215
DTITLE=Prinz Pi - Neopunk
DYEAR=2008
DGENRE=Rap
TTITLE0=Super Seiajin feat. DJ Craft
TTITLE1=8 Bit Untergrund
TTITLE2=Gib dem Affen Zucker
TTITLE3=Kann es sein
TTITLE4=Nerdhymne
TTITLE5=Schlag die Faust feat. Casper
TTITLE6=Affen an die Macht
TTITLE7=Schläferstündchen
TTITLE8=2030
TTITLE9=Aschenbecher
TTITLE10=Mein Blut feat. Bina
TTITLE11=Bevor ich aufschlage
TTITLE12=Schädelficken feat. Biztram
TTITLE13=Spür die Wut
TTITLE14=Wir bleiben immer anti feat. Biztram
TTITLE15=Spring!
TTITLE16=Ein bizchen mehr feat. DJ Craft
TTITLE17=Wir werden nie erwachsen feat. Frauenarzt
TTITLE18=1 Leben lang
TTITLE19=Der Angsthasentwist feat. Jonarama
TTITLE20=Sieben Sünden feat. Basstard
EXTD=
EXTT0=
EXTT1=
EXTT2=
EXTT3=
EXTT4=
EXTT5=
EXTT6=
EXTT7=
EXTT8=
EXTT9=
EXTT10=
EXTT11=
EXTT12=
EXTT13=
EXTT14=
EXTT15=
EXTT16=
EXTT17=
EXTT18=
EXTT19=
EXTT20=
PLAYORDER=
